<svg xmlns="http://www.w3.org/2000/svg" viewBox="0 0 32 32" transform="matrix(-1, 0, 0, 1, 0, 0)"><defs fill="#ffffff"><style>.cls-1{fill:none;stroke:#ffffff;stroke-linecap:round;stroke-linejoin:round;stroke-width:2px;}</style></defs><title/><g id="login"><line class="cls-1" x1="29" x2="16" y1="16" y2="16" fill="#ffffff"/><path d="M24,25v3H8V4H24V7h2V3a1,1,0,0,0-1-1H7A1,1,0,0,0,6,3V29a1,1,0,0,0,1,1H25a1,1,0,0,0,1-1V25Z" fill="#ffffff"/><line class="cls-1" x1="16" x2="20" y1="16" y2="12" fill="#ffffff"/><line class="cls-1" x1="16" x2="20" y1="16" y2="20" fill="#ffffff"/><line class="cls-1" x1="25" x2="25" y1="8" y2="6" fill="#ffffff"/><line class="cls-1" x1="25" x2="25" y1="26" y2="24" fill="#ffffff"/></g></svg>